<svg xmlns="http://www.w3.org/2000/svg" width="1711" height="598" viewBox="0 0 1711 598"><g><g><path fill="#5c2a9d" d="M725 0c13.255 0 24 10.745 24 24s-10.745 24-24 24-24-10.745-24-24 10.745-24 24-24z"/></g><g><path fill="#5c2a9d" d="M1699.5 575c6.351 0 11.5 5.148 11.5 11.5 0 6.351-5.149 11.5-11.5 11.5s-11.5-5.149-11.5-11.5c0-6.352 5.149-11.5 11.5-11.5z"/></g><g><path fill="#f6e7da" d="M17 262c9.389 0 17 7.61 17 17 0 9.389-7.611 17-17 17s-17-7.611-17-17c0-9.39 7.611-17 17-17z"/></g><g><path fill="#e6f5e2" d="M1094.5 403c19.054 0 34.5 15.446 34.5 34.5 0 19.054-15.446 34.5-34.5 34.5-19.054 0-34.5-15.446-34.5-34.5 0-19.054 15.446-34.5 34.5-34.5z"/></g><g><path fill="#e6f5e2" d="M1634 262c5.523 0 10 4.477 10 10s-4.477 10-10 10-10-4.477-10-10 4.477-10 10-10z"/></g></g></svg>