<svg xmlns="http://www.w3.org/2000/svg" width="130" height="530" viewBox="0 0 130 530"><defs><clipPath id="sxe7a"><path fill="#fff" d="M20 20s32.748 152.45 66.92 148.152c34.173-4.298 25.11-42.283 1.773-40.124-23.337 2.16-66.67 88.873-34.436 120.579 32.234 31.705 29.283 60.71 12.59 89.059-16.691 28.348 13.303 49.855 13.686 50.177 12.547 10.556 35.111-19.916-27.702-12.713-56.683 6.5 6.797 104.828 43.547 134.166"/></clipPath></defs><g><g><path fill="none" stroke="#b5076b" stroke-miterlimit="20" stroke-width="4" d="M20 20v0s32.748 152.45 66.92 148.152c34.173-4.298 25.11-42.283 1.773-40.124-23.337 2.16-66.67 88.873-34.436 120.579 32.234 31.705 29.283 60.71 12.59 89.059-16.691 28.348 13.303 49.855 13.686 50.177 12.547 10.556 35.111-19.916-27.702-12.713-56.683 6.5 6.797 104.828 43.547 134.166" clip-path="url(&quot;#sxe7a&quot;)"/></g></g></svg>