<svg xmlns="http://www.w3.org/2000/svg" width="1622" height="425" viewBox="0 0 1622 425"><g><g><path fill="#5c2a9d" d="M1598 0c13.255 0 24 10.745 24 24s-10.745 24-24 24-24-10.745-24-24 10.745-24 24-24z"/></g><g><path fill="#f6e7da" d="M711 227c9.389 0 17 7.611 17 17s-7.611 17-17 17-17-7.611-17-17 7.611-17 17-17z"/></g><g><path fill="#e6f5e2" d="M1281 405c5.523 0 10 4.477 10 10s-4.477 10-10 10-10-4.477-10-10 4.477-10 10-10z"/></g><g><path fill="#b5076b" d="M412 306c5.523 0 10 4.477 10 10s-4.477 10-10 10-10-4.477-10-10 4.477-10 10-10z"/></g><g><path fill="#e6f5e2" d="M34.5 104c19.054 0 34.5 15.446 34.5 34.5 0 19.054-15.446 34.5-34.5 34.5C15.446 173 0 157.554 0 138.5 0 119.446 15.446 104 34.5 104z"/></g></g></svg>