<svg xmlns="http://www.w3.org/2000/svg" width="1691" height="548" viewBox="0 0 1691 548"><g><g><path fill="#5c2a9d" d="M24 135c13.255 0 24 10.745 24 24s-10.745 24-24 24-24-10.745-24-24 10.745-24 24-24z"/></g><g><path fill="#f6e7da" d="M508 378c9.389 0 17 7.611 17 17s-7.611 17-17 17-17-7.611-17-17 7.611-17 17-17z"/></g><g><path fill="#5c2a9d" d="M1567 514c9.389 0 17 7.611 17 17s-7.611 17-17 17-17-7.611-17-17 7.611-17 17-17z"/></g><g><path fill="#e6f5e2" d="M1656.5 0c19.054 0 34.5 15.446 34.5 34.5 0 19.054-15.446 34.5-34.5 34.5-19.054 0-34.5-15.446-34.5-34.5 0-19.054 15.446-34.5 34.5-34.5z"/></g></g></svg>